<?xml version="1.0" encoding="UTF-8"?>
<svg width="24px" height="24px" viewBox="0 0 24 24" version="1.1" xmlns="http://www.w3.org/2000/svg">
    <g stroke="none" stroke-width="1" fill="none" fill-rule="evenodd">
        <path d="M12,14 C13.66,14 15,12.66 15,11 L15,5 C15,3.34 13.66,2 12,2 C10.34,2 9,3.34 9,5 L9,11 C9,12.66 10.34,14 12,14 Z" fill="#64FFDA"/>
        <path d="M17.91,11 C17.91,11 17.91,11 17.91,11 L17.91,11 C17.91,15.97 14.87,19 10,19 L10,21 L14,21 L14,23 L10,23 L6,23 L6,21 L10,21 L10,19 C5.13,19 2.09,15.97 2.09,11 L4,11 C4,14.87 7.13,18 11,18 C14.87,18 18,14.87 18,11 L17.91,11 Z" fill="#64FFDA"/>
    </g>
</svg>
